<?xml version="1.0" encoding="UTF-8"?>
<!DOCTYPE svg PUBLIC "-//W3C//DTD SVG 1.1//EN" "http://www.w3.org/Graphics/SVG/1.1/DTD/svg11.dtd">
<!-- Creator: CorelDRAW X8 -->
<svg xmlns="http://www.w3.org/2000/svg" xml:space="preserve" width="0.835933in" height="0.782067in" version="1.1" style="shape-rendering:geometricPrecision; text-rendering:geometricPrecision; image-rendering:optimizeQuality; fill-rule:evenodd; clip-rule:evenodd"
viewBox="0 0 5985 5600"
 xmlns:xlink="http://www.w3.org/1999/xlink">
 <defs>
  <style type="text/css">
   <![CDATA[
    .str0 {stroke:#FEFEFE;stroke-width:198.906;stroke-linecap:round;stroke-linejoin:round}
    .fil2 {fill:none}
    .fil1 {fill:url(#id0)}
    .fil0 {fill:url(#id1)}
   ]]>
  </style>
  <linearGradient id="id0" gradientUnits="userSpaceOnUse" x1="4683.88" y1="5540.29" x2="1468.32" y2="2324.73">
   <stop offset="0" style="stop-opacity:1; stop-color:#1700E3"/>
   <stop offset="1" style="stop-opacity:1; stop-color:#0065FE"/>
  </linearGradient>
  <linearGradient id="id1" gradientUnits="userSpaceOnUse" xlink:href="#id0" x1="1301.53" y1="59.4276" x2="4517.08" y2="3274.98">
  </linearGradient>
 </defs>
 <g id="Layer_x0020_1">
  <metadata id="CorelCorpID_0Corel-Layer"/>
  <path class="fil0" d="M1581 100c54,-15 98,-30 141,-36 197,-31 364,-40 559,-45 791,-23 2318,-44 2789,59 1160,254 1319,2047 -114,2487 -1248,384 -3687,-478 -4639,517 35,-1135 -161,-2574 1264,-2982z"/>
  <path class="fil1" d="M4405 5500c-54,15 -99,30 -141,36 -198,31 -365,40 -559,45 -792,22 -2318,44 -2789,-59 -1160,-255 -1320,-2047 114,-2488 1248,-384 3686,479 4638,-517 -35,1135 162,2575 -1263,2983z"/>
  <line class="fil2 str0" x1="4468" y1="1791" x2="4469" y2= "1791" />
  <path class="fil2 str0" d="M4204 1527c70,-70 165,-110 264,-110 99,0 195,40 265,110"/>
  <path class="fil2 str0" d="M3940 1263c140,-141 330,-219 528,-219 199,0 389,78 529,218"/>
  <path class="fil2 str0" d="M3676 998c437,-438 1147,-438 1588,0"/>
 </g>
</svg>
